<mxfile host="65bd71144e">
    <diagram id="NC1hEWJh8_QtpdpS8o8B" name="Page-1">
        <mxGraphModel dx="571" dy="979" grid="1" gridSize="10" guides="1" tooltips="1" connect="1" arrows="1" fold="1" page="1" pageScale="1" pageWidth="850" pageHeight="1100" math="0" shadow="0">
            <root>
                <mxCell id="0"/>
                <mxCell id="1" parent="0"/>
                <mxCell id="9K3WaSbQznLkysB0t5U6-4" value="Start" style="strokeWidth=2;html=1;shape=mxgraph.flowchart.terminator;whiteSpace=wrap;" parent="1" vertex="1">
                    <mxGeometry x="190" y="140" width="100" height="60" as="geometry"/>
                </mxCell>
                <mxCell id="9K3WaSbQznLkysB0t5U6-5" value="End" style="strokeWidth=2;html=1;shape=mxgraph.flowchart.terminator;whiteSpace=wrap;" parent="1" vertex="1">
                    <mxGeometry x="190" y="500" width="100" height="60" as="geometry"/>
                </mxCell>
                <mxCell id="9K3WaSbQznLkysB0t5U6-6" value="Work" style="rounded=1;whiteSpace=wrap;html=1;absoluteArcSize=1;arcSize=14;strokeWidth=2;" parent="1" vertex="1">
                    <mxGeometry x="190" y="280" width="100" height="50" as="geometry"/>
                </mxCell>
                <mxCell id="9K3WaSbQznLkysB0t5U6-7" value="17:00 ?&amp;nbsp;" style="strokeWidth=2;html=1;shape=mxgraph.flowchart.decision;whiteSpace=wrap;" parent="1" vertex="1">
                    <mxGeometry x="190" y="360" width="100" height="100" as="geometry"/>
                </mxCell>
                <mxCell id="9K3WaSbQznLkysB0t5U6-8" value="" style="endArrow=none;html=1;rounded=0;entryX=0.5;entryY=1;entryDx=0;entryDy=0;entryPerimeter=0;exitX=0.5;exitY=0;exitDx=0;exitDy=0;" parent="1" source="9K3WaSbQznLkysB0t5U6-6" target="9K3WaSbQznLkysB0t5U6-4" edge="1">
                    <mxGeometry width="50" height="50" relative="1" as="geometry">
                        <mxPoint x="340" y="300" as="sourcePoint"/>
                        <mxPoint x="390" y="250" as="targetPoint"/>
                    </mxGeometry>
                </mxCell>
                <mxCell id="9K3WaSbQznLkysB0t5U6-9" value="" style="endArrow=none;html=1;rounded=0;entryX=0.5;entryY=1;entryDx=0;entryDy=0;exitX=0.5;exitY=0;exitDx=0;exitDy=0;exitPerimeter=0;" parent="1" source="9K3WaSbQznLkysB0t5U6-7" target="9K3WaSbQznLkysB0t5U6-6" edge="1">
                    <mxGeometry width="50" height="50" relative="1" as="geometry">
                        <mxPoint x="400" y="550" as="sourcePoint"/>
                        <mxPoint x="450" y="500" as="targetPoint"/>
                    </mxGeometry>
                </mxCell>
                <mxCell id="9K3WaSbQznLkysB0t5U6-10" value="" style="endArrow=none;html=1;rounded=0;entryX=0.5;entryY=1;entryDx=0;entryDy=0;entryPerimeter=0;exitX=0.5;exitY=0;exitDx=0;exitDy=0;exitPerimeter=0;" parent="1" source="9K3WaSbQznLkysB0t5U6-5" target="9K3WaSbQznLkysB0t5U6-7" edge="1">
                    <mxGeometry width="50" height="50" relative="1" as="geometry">
                        <mxPoint x="400" y="550" as="sourcePoint"/>
                        <mxPoint x="450" y="500" as="targetPoint"/>
                    </mxGeometry>
                </mxCell>
                <mxCell id="9K3WaSbQznLkysB0t5U6-11" value="" style="endArrow=none;html=1;rounded=0;exitX=1;exitY=0.5;exitDx=0;exitDy=0;exitPerimeter=0;" parent="1" source="9K3WaSbQznLkysB0t5U6-7" edge="1">
                    <mxGeometry width="50" height="50" relative="1" as="geometry">
                        <mxPoint x="400" y="550" as="sourcePoint"/>
                        <mxPoint x="340" y="410" as="targetPoint"/>
                    </mxGeometry>
                </mxCell>
                <mxCell id="9K3WaSbQznLkysB0t5U6-12" value="" style="endArrow=none;html=1;rounded=0;" parent="1" edge="1">
                    <mxGeometry width="50" height="50" relative="1" as="geometry">
                        <mxPoint x="340" y="240" as="sourcePoint"/>
                        <mxPoint x="340" y="410" as="targetPoint"/>
                    </mxGeometry>
                </mxCell>
                <mxCell id="9K3WaSbQznLkysB0t5U6-13" value="" style="endArrow=classic;html=1;rounded=0;" parent="1" edge="1">
                    <mxGeometry width="50" height="50" relative="1" as="geometry">
                        <mxPoint x="340" y="240" as="sourcePoint"/>
                        <mxPoint x="240" y="240" as="targetPoint"/>
                    </mxGeometry>
                </mxCell>
            </root>
        </mxGraphModel>
    </diagram>
</mxfile>